<svg xmlns="http://www.w3.org/2000/svg" version="1.1" xmlns:xlink="http://www.w3.org/1999/xlink" xmlns:svgjs="http://svgjs.dev/svgjs" width="100%" height="100%" viewBox="0 0 1000 600"><rect width="1000" height="600" x="0" y="0" fill="#ee7539"/><g><circle r="166.66666666666666" cx="305.17055765787757" cy="327.39279292813933" fill="#f7c5cc" transform="matrix(0.9025016216826014,0,0,0.9025016216826016,0,4.527464630458738)"/><path d="M211.50711255195813 267.91203441543763L211.50711255195813 402.39280364620686L193.85326639811197 402.39280364620686L193.85326639811197 267.91203441543763L147.72826639811197 267.91203441543763L147.72826639811197 252.39280364620686L257.6609587058043 252.39280364620686L257.6609587058043 267.91203441543763L211.50711255195813 267.91203441543763ZM322.7667279365735 402.39280364620686L303.69942024426587 402.39280364620686L258.4686510134966 252.39280364620686L276.81480485965045 252.39280364620686L313.9398048596504 381.5081882615915L351.0359587058043 255.13318826159147L370.82442024426587 255.13318826159147L406.82442024426587 381.59472672312995L444.2378817827274 252.39280364620686L462.6128817827273 252.39280364620686L416.77634332118896 402.39280364620686L397.59365101349664 402.39280364620686L361.07442024426587 276.33511133851454L322.7667279365735 402.39280364620686Z " fill="#312d2e" transform="matrix(0.9025016216826014,0,0,0.9025016216826016,0,4.527464630458738)"/><path d="M572.6376034555042 400.93720882777825L572.6376034555042 400.93720882777825Q564.5012516233106 400.93720882777825 559.8359122699886 395.74935146688415Q555.1705729166666 390.5614941059901 555.1705729166666 383.61946914824694L555.1705729166666 383.61946914824694Q555.1705729166666 376.5281533311975 559.7612668403356 371.4149413999566Q564.3519607640044 366.3017294687157 572.6376034555042 366.3017294687157Q580.8859234321775 366.3017294687157 585.4766173558464 371.4149413999566Q590.0673112795153 376.5281533311975 590.0673112795153 383.61946914824694Q590.0673112795153 390.7107849652964 585.4766173558464 395.8239968965373Q580.8859234321775 400.93720882777825 572.6376034555042 400.93720882777825ZM826.6560005651806 399.36965480506205L804.7475669619805 399.36965480506205L804.7475669619805 324.46296614812394Q804.7475669619805 313.9379605670295 804.2623716692351 306.84664474998004Q803.8144990913162 299.79265164775717 802.1722996389468 292.4400768269217Q800.5301001865774 285.0875020060862 797.581605715278 280.83271251585654Q794.6331112439784 276.5406003108003 789.3706084534313 273.85336484328684Q784.1454283777106 271.1661293757734 776.7928535568751 271.1661293757734L776.7928535568751 271.1661293757734Q762.3489629189902 271.1661293757734 752.1971844861615 278.9292540597012Q742.0080833385063 286.6550560288024 737.6786484186234 300.688396803595L737.6786484186234 300.688396803595Q736.5216442589996 310.1310436547187 736.5216442589996 320.9173082395992L736.5216442589996 320.9173082395992L736.5216442589996 399.36965480506205L714.5758879409728 399.36965480506205L714.5758879409728 322.07431239922306Q714.5758879409728 312.3704065443133 713.9414017889211 305.24176801243726Q713.2695929220426 298.0758067657347 711.4407798955405 291.32039538212445Q709.6119668690383 284.56498399851415 706.5141815384325 280.3475172231111Q703.4537189226533 276.16737316253455 698.3405069914122 273.66675126915396Q693.1899723453448 271.1661293757734 686.1359792431219 271.1661293757734L686.1359792431219 271.1661293757734Q670.3857935863068 271.1661293757734 659.6741744310796 279.1905130634872Q648.9998779906788 287.1775740363745 645.3049292228477 300.427137799809L645.3049292228477 300.427137799809Q644.147925063224 310.54159351781107 644.147925063224 322.3355714030091L644.147925063224 322.3355714030091L644.147925063224 399.36965480506205L622.2021687451972 399.36965480506205Q621.9409097414111 264.33607256250997 621.9409097414111 255.4159437189583L621.9409097414111 255.4159437189583L640.3410081509131 255.4159437189583L643.0655663332532 276.01808230322825Q649.6343641427305 266.05291744453245 661.7269237465412 259.22286063126904Q673.7821606355253 252.3928038180056 689.121796429248 252.3928038180056L689.121796429248 252.3928038180056Q697.1461801169619 252.3928038180056 703.9015915005721 254.03500327037497Q710.6570028841824 255.6772027227443 715.1730513781981 258.1778246161249Q719.7264225870404 260.67844650950553 723.2720804955651 264.1494589883771Q726.7804156892632 267.62047146724865 728.7585195750718 270.9795158016405Q730.7366234608803 274.33856013603236 732.0429184798104 277.99618618903673L732.0429184798104 277.99618618903673Q747.7931041366255 252.3928038180056 780.1892206060936 252.3928038180056L780.1892206060936 252.3928038180056Q804.2250489544085 252.3928038180056 815.4218634023813 266.1275628741856Q826.6560005651806 279.82499921553904 826.6560005651806 306.73467660550034L826.6560005651806 306.73467660550034L826.6560005651806 399.36965480506205ZM937.5791090297646 281.9897166754804Q927.949848604508 270.5316432237216 911.1546269325488 270.5316432237216Q894.3594052605896 270.5316432237216 883.7224315350154 282.40026653857274Q873.0854578094413 294.26888985342396 871.256644782939 314.8710284376939L871.256644782939 314.8710284376939L947.2456921698479 314.8710284376939Q947.2456921698479 293.48511284206586 937.5791090297646 281.9897166754804ZM915.4840618524316 402.3927947060147L915.4840618524316 402.3927947060147Q884.1329813981077 402.3927947060147 866.068787422045 382.4251422737965Q848.0419161608088 362.4948125564049 848.0419161608088 327.8593331973424L848.0419161608088 327.8593331973424Q848.0419161608088 294.38085799790366 865.4716239848198 273.5921058395008Q882.9386545236573 252.80335368109795 911.4158859363349 252.3928038180056L911.4158859363349 252.3928038180056Q938.1762724669899 252.3928038180056 953.8518126941517 270.71825679785445Q969.5273529213136 289.0063870628767 969.5273529213136 319.5736905058425L969.5273529213136 319.5736905058425Q969.5273529213136 321.17856724338526 969.4900302064872 325.3587113039618Q969.4153847768339 329.57617807936487 969.4153847768339 331.4049911058671L969.4153847768339 331.4049911058671L870.6221586308873 331.4049911058671Q870.9953857791529 355.92601474692754 883.2745589570965 369.66077380310753Q895.55373213504 383.35821014446094 916.2678388637897 383.35821014446094L916.2678388637897 383.35821014446094Q939.1093403376542 383.35821014446094 962.0628099559985 371.30297325547684L962.0628099559985 371.30297325547684L965.459177005217 388.9939400832739Q943.5507434020169 402.3927947060147 915.4840618524316 402.3927947060147Z " fill="#f4bd74" transform="matrix(0.9025016216826014,0,0,0.9025016216826016,0,4.527464630458738)"/></g></svg>